# Blender v2.70 (sub 0) OBJ File: ''
# www.blender.org
mtllib cube.mtl
o Cube
v 1.000000 -1.000000 1.000000
v 1.000000 1.000000 1.000000
v -1.000000 1.000000 1.000000
v -1.000000 -1.000000 1.000000
v 1.000000 -1.000000 -1.000000
v 1.000000 1.000000 -1.000000
v -1.000000 -1.000000 -1.000000
v -1.000000 1.000000 -1.000000
vt 1.000000 1.000000
vt 0.000000 1.000000
vt 0.000000 0.000000
vt 1.000000 0.000000
vn 0.000000 -0.000000 1.000000
vn 1.000000 0.000000 0.000000
vn 0.000000 0.000000 -1.000000
vn -1.000000 -0.000000 0.000000
vn 0.000000 1.000000 0.000000
vn 0.000000 -1.000000 -0.000000
usemtl Mat
s off
f 2/1/1 3/2/1 4/3/1
f 1/3/2 5/4/2 6/1/2
f 8/1/3 6/2/3 5/3/3
f 3/1/4 8/2/4 7/3/4
f 6/1/5 8/2/5 3/3/5
f 1/1/6 4/2/6 7/3/6
f 1/4/1 2/1/1 4/3/1
f 2/2/2 1/3/2 6/1/2
f 7/4/3 8/1/3 5/3/3
f 4/4/4 3/1/4 7/3/4
f 2/4/5 6/1/5 3/3/5
f 5/4/6 1/1/6 7/3/6
